<?xml version="1.0" encoding="utf-8"?>
<!-- Generator: Adobe Illustrator 16.0.0, SVG Export Plug-In . SVG Version: 6.00 Build 0)  -->
<!DOCTYPE svg PUBLIC "-//W3C//DTD SVG 1.1//EN" "http://www.w3.org/Graphics/SVG/1.1/DTD/svg11.dtd">
<svg version="1.1"
	 id="svg2" xmlns:rdf="http://www.w3.org/1999/02/22-rdf-syntax-ns#" xmlns:cc="http://creativecommons.org/ns#" xmlns:dc="http://purl.org/dc/elements/1.1/"
	 xmlns="http://www.w3.org/2000/svg" xmlns:xlink="http://www.w3.org/1999/xlink" x="0px" y="0px" width="2000px" height="2000px"
	 viewBox="0 0 2000 2000" enable-background="new 0 0 2000 2000" xml:space="preserve">
<path id="path2987" fill="#B6B6B6" d="M965.5,1996.4c-59.749-2.561-100.14-6.275-141.5-13.016
	c-111.09-18.104-192.46-53.074-244.62-105.13c-31.427-31.368-51.11-68.011-57.853-107.7c-1.558-9.165-1.682-29.076-1.575-253
	c0.115-242.31,0.289-255.71,3.62-278.05c17.201-115.37,97.45-188.17,229.43-208.13c10.624-1.607,31.959-1.788,280-2.382
	c287.26-0.688,273.7-0.443,303.5-5.463c72.236-12.169,129.32-48.216,167.11-105.52c23.483-35.617,38.366-76.771,46.651-129
	c2.09-13.169,2.155-16.808,2.692-148.5l0.55-135h92c100.961,0,101.631,0.032,125.141,6.033
	c119.46,30.483,199.63,148.43,226.31,332.97l3.037,21v131.2c0,125.14-0.087,131.81-1.958,144.5
	c-19.385,131.56-67.471,227.1-142.539,283.22c-32.765,24.494-69.854,41.164-109,48.991c-24.743,4.947-3.85,4.698-387.25,4.614
	l-357.25-0.078v34.529v34.53h242.85h242.85l0.706,121.75c0.49,84.521,0.38,124.04-0.36,129.25
	c-8.946,62.883-61.318,116.41-147.04,150.29c-65.8,26.004-141.92,40.294-248.99,46.746c-17.134,1.032-110.69,2.041-126.5,1.364
	L965.5,1996.4z M1297.1,1841.5c26.422-5.558,49.672-23.97,61.323-48.561c6.031-12.729,7.855-21.42,7.855-37.411
	c0-11.063-0.435-15.594-2.075-21.594c-8.506-31.126-31.949-54.663-62.791-63.048c-10.576-2.875-32.746-3.182-42.272-0.585
	c-26.315,7.173-46.96,23.509-58.418,46.227c-5.608,11.118-7.979,21.073-8.512,35.73c-0.429,11.81-0.188,15.078,1.724,23.349
	c7.57,32.764,34.015,58.682,67.23,65.893C1269.805,1843.376,1288.18,1843.376,1297.1,1841.5L1297.1,1841.5z M258,1490.4
	c-13.487-2.044-33.714-7.516-47.6-12.877c-60.852-23.492-111.98-73.759-147.82-145.311c-29.863-59.629-49.996-139.29-58.045-229.67
	c-5.545-62.267-5.918-137.64-0.966-195.5c10.703-125.09,44.145-221.62,99.801-288.109c46.799-55.902,107.78-89.661,178.68-98.911
	c6.129-0.8,109.76-1.168,366-1.299l357.45-0.18l0.263-34.25l0.264-34.25h-243.51H519.006l-0.25-115.75
	c-0.29-134.64-0.337-130.76,1.711-141.69c7.828-41.776,36.601-80.726,82.04-111.06c80.428-53.689,214.31-81.483,392.5-81.483
	c168.42,0,294.359,25.636,380.3,77.407c61.802,37.233,100.62,89.268,111.21,149.07c1.431,8.08,1.585,33.979,1.514,253.5
	c-0.05,152.91-0.452,249-1.075,256.5c-1.982,23.876-7.259,49.6-14.474,70.552c-4.656,13.524-16.702,38.002-24.333,49.448
	c-37.021,55.528-99.429,93.099-177.779,107.03c-28.921,5.141-10.437,4.804-300.36,5.463l-269.5,0.612l-15,2.166
	c-67.072,9.687-114.28,32.161-154.04,73.337c-38.676,40.054-62.616,92.952-73.721,162.899c-2.102,13.231-2.15,16.194-2.477,148.75
	l-0.333,135.25l-93.716-0.098c-76.111-0.08-95.5-0.369-103.22-1.538L258,1490.4z M748.81,326.5
	c25.43-6.073,48.441-25.138,59.331-49.155c7.544-16.638,9.58-40.006,4.995-57.346c-12.452-47.105-59.772-75.072-106.64-63.025
	c-29.93,7.694-52.811,30.046-62.163,60.728c-2.398,7.868-2.682,10.38-2.682,23.797s0.283,15.929,2.682,23.797
	c10.308,33.816,36.962,57.273,71.202,62.661c7.764,1.222,25.269,0.456,33.271-1.455L748.81,326.5z"/>
</svg>
